
<svg xmlns="http://www.w3.org/2000/svg" xml:space="preserve" width="1.70666in" height="1.70666in" version="1.1" style="shape-rendering:geometricPrecision; text-rendering:geometricPrecision; image-rendering:optimizeQuality; fill-rule:evenodd; clip-rule:evenodd"
viewBox="0 0 1707 1707"
 xmlns:xlink="http://www.w3.org/1999/xlink">
 <defs>
  <style type="text/css">
   <![CDATA[
    .fil0 {fill:#000002}
   ]]>
  </style>
 </defs>
 <g id="Layer_x0020_1">
  <metadata id="CorelCorpID_0Corel-Layer"/>
  <g id="_496452576">
   <g>
    <path class="fil0" d="M1352 1406l-1223 0c-71,0 -129,-58 -129,-130l0 -528c0,-71 58,-129 129,-129l1223 0c71,0 129,58 129,129l0 528c0,72 -58,130 -129,130zm-1223 -741c-45,0 -82,37 -82,83l0 528c0,46 37,83 82,83l1223 0c45,0 82,-37 82,-83l0 -528c0,-46 -37,-83 -82,-83l-1223 0z"/>
   </g>
   <g>
    <path class="fil0" d="M1457 1106c-5,0 -10,-2 -14,-5 -6,-4 -9,-11 -9,-19l0 -334c0,-46 -37,-83 -82,-83l-1111 0c-12,0 -21,-8 -23,-20 -1,-11 6,-22 17,-25l1172 -314c11,-3 22,-5 34,-5 58,0 109,39 124,96l137 510c9,34 4,68 -13,98 -17,30 -45,52 -78,60l-148 40c-2,1 -4,1 -6,1zm-1039 -487l934 0c71,0 129,58 129,129l0 304 118 -32c21,-5 39,-19 50,-38 11,-19 14,-41 8,-63l-137 -510c-9,-36 -42,-61 -79,-61 -8,0 -15,1 -22,3l-1001 268z"/>
   </g>
   <g>
    <path class="fil0" d="M1457 1036l-1434 0c-13,0 -23,-11 -23,-24 0,-13 10,-23 23,-23l1434 0c13,0 24,10 24,23 0,13 -11,24 -24,24z"/>
   </g>
   <g>
    <path class="fil0" d="M499 1406c-13,0 -23,-11 -23,-24l0 -740c0,-13 10,-23 23,-23 13,0 23,10 23,23l0 740c0,13 -10,24 -23,24z"/>
   </g>
   <g>
    <path class="fil0" d="M695 1036l-196 0c-13,0 -23,-11 -23,-24l0 -49c0,-108 87,-196 195,-196l98 0c54,0 97,44 97,98 0,94 -77,171 -171,171zm-173 -47l173 0c69,0 124,-56 124,-124 0,-28 -22,-51 -50,-51l-98 0c-82,0 -149,67 -149,149l0 26 0 0z"/>
   </g>
   <g>
    <path class="fil0" d="M499 1036l-196 0c-94,0 -171,-77 -171,-171 0,-54 44,-98 97,-98l98 0c108,0 195,88 195,196l0 49c0,13 -10,24 -23,24zm-270 -222c-27,0 -50,23 -50,51 0,68 56,124 124,124l173 0 0 -26c0,-82 -67,-149 -149,-149l-98 0z"/>
   </g>
   <g>
    <path class="fil0" d="M273 1157c-26,0 -53,-4 -82,-14 -12,-4 -19,-17 -15,-29 5,-13 18,-19 30,-15 157,53 270,-94 274,-101 8,-10 23,-12 33,-5 10,8 13,23 5,33 -1,2 -100,131 -245,131z"/>
   </g>
   <g>
    <path class="fil0" d="M725 1157c-145,0 -243,-129 -245,-131 -7,-10 -5,-25 5,-33 11,-7 25,-5 33,5 5,7 118,154 274,101 12,-4 26,3 30,15 4,12 -2,25 -15,29 -28,10 -56,14 -82,14z"/>
   </g>
   <g>
    <g>
     <g>
      <path class="fil0" d="M986 875c-12,0 -23,-10 -23,-23l0 -86c0,-13 11,-23 23,-23 13,0 24,10 24,23l0 86c0,13 -11,23 -24,23z"/>
     </g>
     <g>
      <path class="fil0" d="M1150 875c-13,0 -23,-10 -23,-23l0 -86c0,-13 10,-23 23,-23 13,0 23,10 23,23l0 86c0,13 -10,23 -23,23z"/>
     </g>
     <g>
      <path class="fil0" d="M1314 875c-13,0 -24,-10 -24,-23l0 -86c0,-13 11,-23 24,-23 12,0 23,10 23,23l0 86c0,13 -11,23 -23,23z"/>
     </g>
    </g>
    <g>
     <g>
      <path class="fil0" d="M986 1282c-12,0 -23,-11 -23,-24l0 -86c0,-12 11,-23 23,-23 13,0 24,11 24,23l0 86c0,13 -11,24 -24,24z"/>
     </g>
     <g>
      <path class="fil0" d="M1150 1282c-13,0 -23,-11 -23,-24l0 -86c0,-12 10,-23 23,-23 13,0 23,11 23,23l0 86c0,13 -10,24 -23,24z"/>
     </g>
     <g>
      <path class="fil0" d="M1314 1282c-13,0 -24,-11 -24,-24l0 -86c0,-12 11,-23 24,-23 12,0 23,11 23,23l0 86c0,13 -11,24 -23,24z"/>
     </g>
    </g>
   </g>
  </g>
 </g>
</svg>
