<?xml version="1.0" encoding="UTF-8"?>
<!DOCTYPE svg PUBLIC "-//W3C//DTD SVG 1.1//EN" "http://www.w3.org/Graphics/SVG/1.1/DTD/svg11.dtd">
<!-- Creator: CorelDRAW -->
<svg xmlns="http://www.w3.org/2000/svg" xml:space="preserve" width="7.11111in" height="7.11111in" version="1.1" style="shape-rendering:geometricPrecision; text-rendering:geometricPrecision; image-rendering:optimizeQuality; fill-rule:evenodd; clip-rule:evenodd"
viewBox="0 0 7111 7111"
 xmlns:xlink="http://www.w3.org/1999/xlink">
 <defs>
  <style type="text/css">
   <![CDATA[
    .fil0 {fill:black}
   ]]>
  </style>
 </defs>
 <g id="Layer_x0020_1">
  <metadata id="CorelCorpID_0Corel-Layer"/>
  <g id="_514415792">
   <g>
    <g>
     <path class="fil0" d="M6657 6309l-6197 0c-255,0 -457,-208 -457,-457l0 -81c0,-58 46,-104 104,-104 168,0 307,-139 307,-307 0,-168 -139,-307 -307,-307 -58,0 -104,-46 -104,-104l0 -162c0,-58 46,-104 104,-104 168,0 307,-139 307,-307 0,-167 -139,-306 -307,-306 -58,0 -104,-47 -104,-104l0 -162c0,-58 46,-105 104,-105 168,0 307,-133 307,-300 0,-168 -139,-307 -307,-307 -58,0 -104,-46 -104,-104l0 -81c0,-255 208,-457 457,-457l6197 0c254,0 457,208 457,457l0 81c0,58 -46,104 -104,104 -168,0 -307,139 -307,307 0,167 139,300 307,300 58,0 104,47 104,105l0 167c0,58 -46,104 -104,104 -168,0 -307,139 -307,307 0,168 139,307 307,307 58,0 104,46 104,104l0 162c0,58 -46,104 -104,104 -168,0 -307,139 -307,307 0,168 139,306 307,306 58,0 104,47 104,105l0 81c0,243 -203,451 -457,451zm-6457 -457c5,133 121,249 254,249l6203 0c139,0 254,-116 254,-249 -231,-46 -410,-255 -410,-498 0,-231 156,-428 370,-492 -214,-63 -370,-260 -370,-491 0,-238 156,-434 376,-492 -214,-58 -376,-255 -376,-486 0,-249 173,-452 410,-498 -5,-133 -121,-249 -254,-249l-6197 0c-139,0 -255,116 -255,249 232,46 411,255 411,498 0,231 -156,428 -376,486 214,58 376,254 376,492 0,231 -156,428 -370,491 214,64 370,261 370,492 -6,249 -179,452 -416,498z"/>
    </g>
    <g>
     <path class="fil0" d="M4747 6309c-57,0 -104,-46 -104,-104l0 -3657c0,-58 47,-104 104,-104 58,0 105,46 105,104l0 3657c0,58 -47,104 -105,104z"/>
    </g>
    <g>
     <g>
      <path class="fil0" d="M2468 3242l-1435 0c-58,0 -104,-46 -104,-104 0,-58 46,-104 104,-104l1435 0c58,0 104,46 104,104 0,58 -52,104 -104,104z"/>
     </g>
     <g>
      <path class="fil0" d="M3017 3861l-1984 0c-58,0 -104,-46 -104,-104 0,-58 46,-104 104,-104l1984 0c58,0 105,46 105,104 0,58 -47,104 -105,104z"/>
     </g>
     <g>
      <path class="fil0" d="M3793 4481l-2760 0c-58,0 -104,-47 -104,-105 0,-57 46,-104 104,-104l2760 0c58,0 104,47 104,104 0,58 -46,105 -104,105z"/>
     </g>
     <g>
      <path class="fil0" d="M3793 5094l-2760 0c-58,0 -104,-46 -104,-104 0,-58 46,-104 104,-104l2760 0c58,0 104,46 104,104 0,58 -46,104 -104,104z"/>
     </g>
     <g>
      <path class="fil0" d="M3793 5707l-2760 0c-58,0 -104,-46 -104,-104 0,-58 46,-104 104,-104l2760 0c58,0 104,46 104,104 0,58 -46,104 -104,104z"/>
     </g>
    </g>
    <g>
     <path class="fil0" d="M101 3005c-58,0 -104,-46 -104,-104 0,-243 197,-509 434,-573l5370 -1504c127,-41 254,-23 353,46 86,64 138,168 138,289l0 81c0,47 -29,81 -69,99 -185,58 -336,260 -336,439 0,70 23,133 70,162 52,35 121,41 202,18 29,-12 64,-6 93,11 29,18 40,52 40,81l0 168c0,46 -29,81 -69,99 -122,40 -237,144 -295,271 -23,53 -81,76 -133,53 -52,-24 -75,-81 -52,-134 63,-138 173,-254 301,-329 -76,-6 -145,-29 -209,-70 -104,-69 -162,-185 -162,-324 0,-249 174,-497 411,-607l0 -12c0,-58 -17,-98 -52,-127 -41,-29 -104,-35 -174,-18l-5375 1511c-150,40 -283,219 -283,376 0,58 -47,98 -99,98z"/>
    </g>
   </g>
  </g>
 </g>
</svg>
